<svg xmlns="http://www.w3.org/2000/svg" width="64" height="64" fill="none"><path fill="#EF4444" d="M23.3 47.714c5.6 0 10.522-2.839 13.367-7.143h4.975C38.38 47.331 31.393 52 23.3 52 12.09 52 3 43.045 3 32s9.09-20 20.3-20c10.72 0 19.503 8.196 20.246 18.571h-4.368c-.725-8.009-7.559-14.285-15.878-14.285-8.809 0-15.95 7.035-15.95 15.714s7.141 15.714 15.95 15.714m0-27.143c1.205 0 2.175.956 2.175 2.143v10c0 1.188-.97 2.143-2.175 2.143s-2.175-.955-2.175-2.143v-10c0-1.187.97-2.143 2.175-2.143m-2.9 20c0-.757.306-1.484.85-2.02a2.92 2.92 0 0 1 2.05-.837c.77 0 1.507.301 2.05.837.544.536.85 1.263.85 2.02s-.305 1.485-.85 2.02a2.92 2.92 0 0 1-2.05.838c-.77 0-1.507-.301-2.05-.837a2.84 2.84 0 0 1-.85-2.02m25.919-11.428a22.5 22.5 0 0 0-.979-4.286h6.95c2.403 0 4.35-1.92 4.35-4.286s-1.947-4.285-4.35-4.285h-3.624c-1.205 0-2.175-.956-2.175-2.143 0-1.188.97-2.143 2.175-2.143h3.625c4.803 0 8.7 3.84 8.7 8.571 0 4.733-3.897 8.572-8.7 8.572H46.31zM45.775 52c-1.205 0-2.175-.955-2.175-2.143s.97-2.143 2.175-2.143h5.8c2.8 0 5.075-2.24 5.075-5s-2.275-5-5.075-5h-17.4c-1.205 0-2.175-.955-2.175-2.143s.97-2.142 2.175-2.142h17.4c5.202 0 9.425 4.16 9.425 9.285S56.777 52 51.575 52z"/></svg>